<!-- Generated by IcoMoon.io -->
<svg version="1.1" xmlns="http://www.w3.org/2000/svg" width="48" height="32" viewBox="0 0 48 32">
<title>eye</title>
<path d="M47.709 14.784c-4.454-8.776-13.38-14.704-23.698-14.784l-0.011-0c-10.329 0.081-19.255 6.008-23.639 14.632l-0.070 0.152c-0.183 0.354-0.29 0.773-0.29 1.216s0.107 0.862 0.297 1.231l-0.007-0.015c4.454 8.776 13.38 14.704 23.698 14.784l0.011 0c10.329-0.081 19.255-6.008 23.639-14.632l0.070-0.152c0.183-0.354 0.29-0.773 0.29-1.216s-0.107-0.862-0.297-1.231l0.007 0.015zM23.999 27.999c-6.627 0-12-5.372-12-12s5.372-12 12-12c6.627 0 12 5.372 12 12v0c0 6.627-5.372 12-12 12v0zM23.999 7.998c-0.756 0.011-1.48 0.126-2.166 0.331l0.056-0.014c0.484 0.652 0.775 1.473 0.775 2.362 0 2.203-1.786 3.988-3.988 3.988-0.888 0-1.709-0.29-2.372-0.782l0.011 0.008c-0.177 0.627-0.279 1.347-0.279 2.090 0 4.408 3.573 7.981 7.981 7.981s7.981-3.573 7.981-7.981c0-4.408-3.573-7.981-7.981-7.981-0.006 0-0.013 0-0.019 0h0.001z"></path>
</svg>
