<!-- Generated by IcoMoon.io -->
<svg version="1.1" xmlns="http://www.w3.org/2000/svg" width="39" height="32" viewBox="0 0 39 32">
<title>twitter</title>
<path d="M35.349 7.974c0.025 0.35 0.025 0.699 0.025 1.049 0 0.047 0.001 0.103 0.001 0.158 0 12.602-10.216 22.817-22.817 22.817-0.056 0-0.111-0-0.167-0.001l0.009 0c-0.017 0-0.037 0-0.058 0-4.584 0-8.853-1.352-12.429-3.679l0.088 0.054c0.551 0.065 1.19 0.101 1.837 0.101 0.040 0 0.079-0 0.119-0l-0.006 0c0.013 0 0.029 0 0.044 0 3.782 0 7.261-1.298 10.015-3.474l-0.034 0.026c-3.516-0.070-6.477-2.372-7.526-5.545l-0.016-0.057c0.456 0.076 0.983 0.122 1.52 0.126l0.004 0c0.756-0.003 1.488-0.103 2.185-0.289l-0.060 0.014c-3.723-0.77-6.481-4.022-6.481-7.918 0-0.002 0-0.005 0-0.007v0-0.101c1.052 0.598 2.302 0.971 3.634 1.024l0.016 0.001c-2.184-1.471-3.601-3.934-3.601-6.729 0-1.501 0.409-2.907 1.122-4.112l-0.021 0.038c4 4.899 9.919 8.1 16.592 8.451l0.057 0.002c-0.121-0.556-0.191-1.194-0.192-1.849v-0.001c0.003-4.461 3.62-8.077 8.082-8.077 2.322 0 4.415 0.979 5.889 2.547l0.004 0.004c1.932-0.38 3.65-1.057 5.196-1.99l-0.071 0.040c-0.625 1.899-1.881 3.446-3.515 4.429l-0.036 0.020c1.721-0.201 3.291-0.641 4.747-1.289l-0.103 0.041c-1.126 1.631-2.468 3.016-4.004 4.153l-0.047 0.033z"></path>
</svg>
