<!-- Generated by IcoMoon.io -->
<svg version="1.1" xmlns="http://www.w3.org/2000/svg" width="46" height="32" viewBox="0 0 46 32">
<title>youtube</title>
<path d="M44.56 5.008c-0.536-1.975-2.054-3.502-3.984-4.041l-0.040-0.010c-4.845-0.616-10.452-0.967-16.14-0.967-0.577 0-1.153 0.004-1.728 0.011l0.087-0.001c-0.488-0.006-1.064-0.010-1.641-0.010-5.688 0-11.295 0.351-16.798 1.034l0.658-0.067c-1.97 0.549-3.488 2.076-4.015 4.011l-0.009 0.040c-0.605 3.198-0.951 6.878-0.951 10.638 0 0.136 0 0.271 0.001 0.407l-0-0.021c-0.001 0.111-0.001 0.243-0.001 0.374 0 3.765 0.347 7.45 1.010 11.023l-0.057-0.37c0.541 1.956 2.060 3.462 3.985 3.975l0.039 0.009c4.846 0.616 10.452 0.967 16.14 0.967 0.576 0 1.152-0.004 1.726-0.011l-0.087 0.001c0.488 0.006 1.064 0.010 1.641 0.010 5.688 0 11.295-0.351 16.798-1.034l-0.658 0.067c1.964-0.522 3.483-2.028 4.015-3.944l0.009-0.040c0.606-3.203 0.953-6.887 0.953-10.652 0-0.132-0-0.263-0.001-0.395l0 0.020c0.001-0.111 0.001-0.243 0.001-0.374 0-3.765-0.347-7.45-1.010-11.023l0.057 0.37zM18.101 22.8v-13.533l11.896 6.768-11.896 6.765z"></path>
</svg>
