<!-- Generated by IcoMoon.io -->
<svg version="1.1" xmlns="http://www.w3.org/2000/svg" width="17" height="32" viewBox="0 0 17 32">
<title>facebook</title>
<path d="M16.016 18l0.888-5.8h-5.556v-3.75c-0.007-0.077-0.011-0.167-0.011-0.257 0-1.599 1.297-2.896 2.896-2.896 0.134 0 0.267 0.009 0.396 0.027l-0.015-0.002h2.526v-4.922c-1.331-0.229-2.88-0.374-4.458-0.4l-0.026-0c-0.161-0.013-0.349-0.021-0.538-0.021-3.905 0-7.070 3.165-7.070 7.070 0 0.264 0.014 0.525 0.043 0.782l-0.003-0.032v4.4h-5.088v5.8h5.088v14h6.26v-14z"></path>
</svg>
