<!-- Generated by IcoMoon.io -->
<svg version="1.1" xmlns="http://www.w3.org/2000/svg" width="48" height="32" viewBox="0 0 48 32">
<title>movie</title>
<path d="M44 32h-40c-2.209 0-4-1.791-4-4v0-24c0-2.209 1.791-4 4-4v0h40c2.209 0 4 1.791 4 4v0 24c0 2.209-1.791 4-4 4v0zM10.667 9.668v-3.333c0 0 0 0 0 0 0-0.552-0.447-1-0.999-1.001h-3.333c-0.553 0-1.001 0.448-1.001 1.001v0 3.333c0.001 0.552 0.449 0.999 1.001 0.999 0 0 0 0 0 0h3.333c0.551-0.001 0.998-0.448 0.999-0.999v-0zM18.667 9.668v-3.333c0 0 0 0 0 0 0-0.552-0.447-1-0.999-1.001h-3.333c-0.552 0.001-0.999 0.449-0.999 1.001 0 0 0 0 0 0v0 3.333c0.001 0.551 0.448 0.998 0.999 0.999h3.333c0.551-0.001 0.998-0.448 0.999-0.999v-0zM26.667 9.668v-3.333c0 0 0 0 0 0 0-0.552-0.447-1-0.999-1.001h-3.333c-0.553 0-1.001 0.448-1.001 1.001v0 3.333c0.001 0.552 0.449 0.999 1.001 0.999 0 0 0 0 0 0h3.333c0.551-0.001 0.998-0.448 0.999-0.999v-0zM34.667 9.668v-3.333c0 0 0 0 0 0 0-0.552-0.447-1-0.999-1.001h-3.333c-0.552 0.001-0.999 0.449-0.999 1.001 0 0 0 0 0 0v0 3.333c0.001 0.551 0.448 0.998 0.999 0.999h3.333c0.551-0.001 0.998-0.448 0.999-0.999v-0zM42.667 9.668v-3.333c0 0 0 0 0 0 0-0.552-0.447-1-0.999-1.001h-3.333c-0.553 0-1.001 0.448-1.001 1.001v0 3.333c0.001 0.552 0.449 0.999 1.001 0.999 0 0 0 0 0 0h3.333c0.551-0.001 0.998-0.448 0.999-0.999v-0zM14.667 17.668v-3.333c-0.001-0.551-0.448-0.998-0.999-0.999h-3.333c-0.552 0.001-0.999 0.449-0.999 1.001 0 0 0 0 0 0v0 3.333c0 0.553 0.448 1.001 1.001 1.001v0h3.332c0.552-0.001 0.999-0.449 0.999-1.001 0-0.001 0-0.001 0-0.002v0zM22.667 17.668v-3.333c-0.001-0.551-0.448-0.998-0.999-0.999h-3.333c-0.552 0.001-0.999 0.449-0.999 1.001 0 0 0 0 0 0v0 3.333c0 0.553 0.448 1.001 1.001 1.001v0h3.333c0.551-0.002 0.997-0.449 0.997-1.001 0-0.001 0-0.001 0-0.002v0zM30.667 17.668v-3.333c-0.001-0.551-0.448-0.998-0.999-0.999h-3.333c-0.552 0.001-0.999 0.449-0.999 1.001 0 0 0 0 0 0v0 3.333c0 0.553 0.448 1.001 1.001 1.001v0h3.333c0.551-0.002 0.997-0.449 0.997-1.001 0-0.001 0-0.001 0-0.002v0zM38.667 17.668v-3.333c-0.001-0.551-0.448-0.998-0.999-0.999h-3.333c-0.552 0.001-0.999 0.449-0.999 1.001 0 0 0 0 0 0v0 3.333c0 0.553 0.448 1.001 1.001 1.001h3.333c0.551-0.002 0.997-0.449 0.997-1.001 0-0.001 0-0.001 0-0.002v0zM10.667 25.668v-3.333c0 0 0 0 0 0 0-0.552-0.447-1-0.999-1.001h-3.333c-0.553 0-1.001 0.448-1.001 1.001v0 3.333c0.001 0.552 0.449 0.999 1.001 0.999 0 0 0 0 0 0h3.333c0.551-0.001 0.998-0.448 0.999-0.999v-0zM34.667 25.668v-3.333c0 0 0 0 0 0 0-0.552-0.447-1-0.999-1.001h-19.333c-0.552 0.001-0.999 0.449-0.999 1.001 0 0 0 0 0 0v0 3.333c0.001 0.551 0.448 0.998 0.999 0.999h19.333c0.551-0.001 0.998-0.448 0.999-0.999v-0zM42.667 25.668v-3.333c0 0 0 0 0 0 0-0.552-0.447-1-0.999-1.001h-3.333c-0.552 0.001-0.999 0.449-0.999 1.001 0 0 0 0 0 0v0 3.333c0 0.553 0.448 1.001 1.001 1.001h3.333c0.551-0.002 0.997-0.449 0.997-1.001 0 0 0 0 0 0v0z"></path>
</svg>
