<!-- Generated by IcoMoon.io -->
<svg version="1.1" xmlns="http://www.w3.org/2000/svg" width="1365" height="1024" viewBox="0 0 1365 1024">
<title></title>
<g id="icomoon-ignore">
</g>
<path d="M1301.333 0h-21.333v53.362c-0.032 17.656-14.32 31.964-31.965 32.028h-106.673c-17.631-0.064-31.907-14.34-31.972-31.965v-53.425h-853.39v53.362c-0.032 17.656-14.32 31.964-31.965 32.028h-106.673c-17.676-0.032-31.996-14.353-32.028-32.025v-53.365h-21.333c-0.051 0-0.111 0-0.171 0-35.252 0-63.829 28.577-63.829 63.829 0 0.060 0 0.12 0 0.18v-0.009 896c0 0.051 0 0.111 0 0.171 0 35.252 28.577 63.829 63.829 63.829 0.060 0 0.12 0 0.18 0h21.324v-53.305c0.065-17.651 14.373-31.939 32.025-31.972h106.67c17.676 0.032 31.996 14.353 32.028 32.025v53.251h853.333v-53.305c0.065-17.651 14.373-31.939 32.025-31.972h106.67c17.676 0.032 31.996 14.353 32.028 32.025v53.251h21.333c0.017 0 0.037 0 0.057 0 35.252 0 63.829-28.577 63.829-63.829 0-0.060 0-0.12 0-0.18v0.009-896c0-0.051 0-0.111 0-0.171 0-35.252-28.577-63.829-63.829-63.829-0.060 0-0.12 0-0.18 0h0.009zM256 821.362c-0.064 17.631-14.34 31.907-31.965 31.972h-106.673c-17.631-0.064-31.907-14.34-31.972-31.965v-106.673c0.032-17.656 14.32-31.964 31.965-32.028h106.673c17.676 0.032 31.996 14.353 32.028 32.025v0.003zM256 565.362c-0.032 17.656-14.32 31.964-31.965 32.028h-106.673c-17.631-0.064-31.907-14.34-31.972-31.965v-106.73c0.065-17.651 14.373-31.939 32.025-31.972h106.613c17.676 0.032 31.996 14.353 32.028 32.025v0.003zM256 309.362c-0.064 17.631-14.34 31.907-31.965 31.972h-106.673c-17.656-0.032-31.964-14.32-32.028-31.965v-106.673c0.032-17.676 14.353-31.996 32.025-32.028h106.67c17.676 0.032 31.996 14.353 32.028 32.025v0.003zM981.333 864.028c-0.032 17.656-14.32 31.964-31.965 32.028h-533.339c-17.631-0.064-31.907-14.34-31.972-31.965v-256.006c0.065-17.651 14.373-31.939 32.025-31.972h533.336c17.676 0.032 31.996 14.353 32.028 32.025v0.003zM981.333 416.028c-0.032 17.656-14.32 31.964-31.965 32.028h-533.339c-17.631-0.064-31.907-14.34-31.972-31.965v-256.006c0.065-17.651 14.373-31.939 32.025-31.972h533.336c17.676 0.032 31.996 14.353 32.028 32.025v0.003zM1280 821.362c-0.032 17.656-14.32 31.964-31.965 32.028h-106.673c-17.631-0.064-31.907-14.34-31.972-31.965v-106.73c0.032-17.656 14.32-31.964 31.965-32.028h106.673c17.676 0.032 31.996 14.353 32.028 32.025v0.003zM1280 565.362c-0.032 17.656-14.32 31.964-31.965 32.028h-106.673c-17.631-0.064-31.907-14.34-31.972-31.965v-106.73c0.065-17.651 14.373-31.939 32.025-31.972h106.67c17.676 0.032 31.996 14.353 32.028 32.025v0.003zM1280 309.362c-0.064 17.631-14.34 31.907-31.965 31.972h-106.673c-17.631-0.064-31.907-14.34-31.972-31.965v-106.673c0.032-17.656 14.32-31.964 31.965-32.028h106.673c17.676 0.032 31.996 14.353 32.028 32.025v0.003z"></path>
</svg>
